<svg width="4" height="16" viewBox="0 0 4 16" fill="none" xmlns="http://www.w3.org/2000/svg">
<path d="M1.16772 7.99974C1.16772 8.22075 1.25552 8.43271 1.4118 8.58899C1.56808 8.74527 1.78004 8.83307 2.00106 8.83307C2.22207 8.83307 2.43403 8.74527 2.59031 8.58899C2.74659 8.43271 2.83439 8.22075 2.83439 7.99974C2.83439 7.77872 2.74659 7.56676 2.59031 7.41048C2.43403 7.2542 2.22207 7.1664 2.00106 7.1664C1.78004 7.1664 1.56808 7.2542 1.4118 7.41048C1.25552 7.56676 1.16772 7.77872 1.16772 7.99974ZM1.16772 13.8331C1.16772 14.0541 1.25552 14.266 1.4118 14.4223C1.56808 14.5786 1.78004 14.6664 2.00106 14.6664C2.22207 14.6664 2.43403 14.5786 2.59031 14.4223C2.74659 14.266 2.83439 14.0541 2.83439 13.8331C2.83439 13.6121 2.74659 13.4001 2.59031 13.2438C2.43403 13.0875 2.22207 12.9997 2.00106 12.9997C1.78004 12.9997 1.56808 13.0875 1.4118 13.2438C1.25552 13.4001 1.16772 13.6121 1.16772 13.8331ZM1.16772 2.1664C1.16772 2.38742 1.25552 2.59938 1.4118 2.75566C1.56808 2.91194 1.78004 2.99974 2.00106 2.99974C2.22207 2.99974 2.43403 2.91194 2.59031 2.75566C2.74659 2.59938 2.83439 2.38742 2.83439 2.1664C2.83439 1.94539 2.74659 1.73343 2.59031 1.57715C2.43403 1.42087 2.22207 1.33307 2.00106 1.33307C1.78004 1.33307 1.56808 1.42087 1.4118 1.57715C1.25552 1.73343 1.16772 1.94539 1.16772 2.1664Z" stroke="#9D9FA2" stroke-width="1.15385" stroke-linecap="round" stroke-linejoin="round"/>
</svg>
